<?xml version="1.0" encoding="UTF-8"?>
<svg version="1.1" xmlns="http://www.w3.org/2000/svg" width="516" height="484">
<path d="M0 0 C3.78597884 0.0001019 7.57177138 -0.01361482 11.35770607 -0.03077221 C14.32468472 -0.04200811 17.29161968 -0.04391579 20.2586174 -0.04339027 C21.652934 -0.04455053 23.04725249 -0.04885852 24.44154739 -0.05672264 C60.82753501 -0.24299808 60.82753501 -0.24299808 69.10351562 7.62280273 C69.70164062 8.46842773 70.29976562 9.31405273 70.91601562 10.18530273 C71.36976563 10.80405273 71.82351563 11.42280273 72.29101562 12.06030273 C73.60819054 16.53869744 72.34632237 20.2709009 70.41601562 24.37280273 C62.69821044 33.05533357 47.95168603 34.50851304 36.91601562 35.18530273 C31.33622052 35.32206465 25.75359737 35.26577775 20.17277908 35.22990227 C17.33526333 35.21229075 14.49780566 35.20214141 11.6602478 35.19398499 C3.59782421 35.16974104 -4.46452161 35.13439008 -12.52685547 35.08935547 C-17.47916778 35.06221445 -22.43143484 35.04540594 -27.38380814 35.03448677 C-29.24848724 35.0283727 -31.11315872 35.01849338 -32.97779465 35.00440788 C-42.64756221 34.93206546 -52.22571561 35.11747814 -61.85986328 36.0078125 C-62.66273962 36.07727805 -63.46561596 36.1467436 -64.29282188 36.21831417 C-77.32046297 37.57500547 -87.63976371 43.90110892 -97.50976562 52.14624023 C-100.08398438 54.18530273 -100.08398438 54.18530273 -103.08398438 55.18530273 C-103.77358402 56.84261217 -104.43685758 58.51095237 -105.08398438 60.18530273 C-106.30980142 61.72230954 -107.58492959 63.22077502 -108.89648438 64.68530273 C-116.62418169 74.14247995 -118.9566749 85.61707262 -120.83398438 97.43530273 C-121.14529297 99.1794043 -121.14529297 99.1794043 -121.46289062 100.95874023 C-125.42154133 125.01712065 -124.21804823 149.89876285 -124.15264893 174.20550537 C-124.1422257 178.50410454 -124.13781159 182.80271007 -124.1328125 187.10131836 C-124.1222428 195.46266328 -124.10528779 203.82397828 -124.08398438 212.18530273 C-123.50341782 211.59363312 -122.92285126 211.0019635 -122.32469177 210.3923645 C-116.7943733 204.76098064 -111.25144453 199.14236534 -105.69474697 193.53700447 C-102.83984973 190.65624615 -99.98969282 187.77113211 -97.15063477 184.87475586 C-78.00428037 165.35235666 -59.57379477 146.83014355 -30.45898438 145.81030273 C-13.56252144 146.12184272 3.52947836 152.54331143 15.91601562 164.18530273 C18.49555076 166.92276859 21.00220906 169.71216513 23.49023438 172.53295898 C26.72106211 176.06553875 30.26328401 179.10488851 33.91601562 182.18530273 C36.41601562 184.49780273 36.41601562 184.49780273 37.91601562 186.18530273 C37.91601562 186.84530273 37.91601562 187.50530273 37.91601562 188.18530273 C38.49867188 188.45342773 39.08132813 188.72155273 39.68164062 188.99780273 C41.94388163 190.20011264 43.7217788 191.52356186 45.66601562 193.18530273 C46.27960938 193.70092773 46.89320313 194.21655273 47.52539062 194.74780273 C48.91601562 196.18530273 48.91601562 196.18530273 48.91601562 198.18530273 C49.8209375 198.58168945 49.8209375 198.58168945 50.74414062 198.98608398 C53.02024433 200.24285347 54.08419996 201.33970436 55.66601562 203.37280273 C58.47592087 206.80316929 61.56792351 209.59751606 64.98632812 212.41186523 C66.91601562 214.18530273 66.91601562 214.18530273 68.86523438 216.66577148 C70.9338267 219.20718491 72.9805159 220.92561614 75.60351562 222.87280273 C80.20522733 226.45416427 83.9311763 230.39249145 87.74414062 234.78686523 C90.36810594 237.68455355 93.19610856 240.20587439 96.18945312 242.71264648 C97.86474116 244.14156864 99.45299197 245.53827918 100.91601562 247.18530273 C100.91601562 247.84530273 100.91601562 248.50530273 100.91601562 249.18530273 C101.46515625 249.41862305 102.01429688 249.65194336 102.58007812 249.89233398 C109.51414946 253.73042364 115.50285972 260.44678158 120.46679688 266.54858398 C122.11328887 268.4080992 123.89457141 269.95731217 125.79101562 271.56030273 C128.77081238 274.08689846 131.36109556 276.72961089 133.91601562 279.68530273 C137.01009791 283.26283538 140.27544515 286.30188518 143.88476562 289.34545898 C147.54596963 292.66166492 150.71504158 296.43096882 153.91601562 300.18530273 C158.0828739 297.24101225 160.57025108 294.08507323 162.91601562 289.62280273 C163.25777832 288.9744043 163.59954102 288.32600586 163.95166016 287.65795898 C175.77210268 264.00591731 174.90426763 235.67907619 175.12695312 209.90405273 C175.14141433 208.33646116 175.1559002 206.76886981 175.17041016 205.20127869 C175.22863289 198.71878492 175.2841737 192.23633849 175.31738281 185.75366211 C175.33848162 181.73632147 175.37385981 177.71931277 175.41814041 173.7021637 C175.43212927 172.19377054 175.4409833 170.68531923 175.44419479 169.17686462 C175.49538928 147.48551871 175.49538928 147.48551871 181.10351562 140.43530273 C184.85283719 138.7689376 187.88787879 138.25384716 191.91601562 139.18530273 C197.07997135 142.9722036 199.29489353 147.94982609 200.48583984 154.15356445 C201.1878901 159.51687519 201.05835425 164.91904021 201.04882812 170.31811523 C201.05023804 171.49581482 201.05164795 172.6735144 201.05310059 173.88690186 C201.05522937 177.69473307 201.04896141 181.50248001 201.04101562 185.31030273 C201.03868927 187.24779388 201.03868927 187.24779388 201.03631592 189.22442627 C200.98248976 227.19789329 200.98248976 227.19789329 199.91601562 244.18530273 C199.83528809 245.47283447 199.83528809 245.47283447 199.75292969 246.78637695 C198.21628136 268.91150833 194.59204666 291.24411112 180.91601562 309.18530273 C180.25956055 310.08684082 180.25956055 310.08684082 179.58984375 311.0065918 C171.30678836 322.30712389 161.76241862 331.62192613 149.72851562 338.87280273 C148.93429199 339.35330078 148.14006836 339.83379883 147.32177734 340.32885742 C137.02291476 346.23379153 126.33834041 348.75694936 114.66601562 350.37280273 C112.98765625 350.61933594 112.98765625 350.61933594 111.27539062 350.87084961 C108.15739619 351.32494432 105.03882249 351.76560496 101.91601562 352.18530273 C100.71930237 352.34747787 99.52258911 352.50965302 98.28961182 352.67674255 C93.81112618 353.23212372 89.34022006 353.52129479 84.83398438 353.73950195 C83.97008591 353.78161238 83.10618744 353.8237228 82.21611023 353.8671093 C71.88863327 354.32898317 61.56432316 354.32997609 51.22851562 354.31811523 C49.10782866 354.31879172 46.98714178 354.31976458 44.86645508 354.3210144 C40.45620982 354.32247521 36.04598503 354.32038954 31.63574219 354.31567383 C26.04222482 354.30997757 20.44875548 354.31326535 14.85523987 354.31924629 C10.48636527 354.322896 6.11750167 354.32169329 1.74862671 354.3191185 C-0.3114116 354.31846136 -2.37145098 354.31923406 -4.43148804 354.32159805 C-22.58019043 354.33786495 -40.61274451 354.03510878 -58.58398438 351.31030273 C-59.72867188 351.14916992 -60.87335938 350.98803711 -62.05273438 350.82202148 C-76.73689321 348.66945729 -90.34861557 345.00018813 -103.08398438 337.18530273 C-103.08398438 336.52530273 -103.08398438 335.86530273 -103.08398438 335.18530273 C-104.13585937 334.81405273 -104.13585937 334.81405273 -105.20898438 334.43530273 C-112.61515375 331.21522909 -117.58456438 325.97416589 -123.08398438 320.18530273 C-123.695 319.55624023 -124.30601563 318.92717773 -124.93554688 318.27905273 C-147.07889093 294.41681896 -150.66003373 263.11417954 -150.99452209 232.00097656 C-151.05360143 226.59111787 -151.18566366 221.18656625 -151.35351562 215.77905273 C-155.61602569 75.09342172 -155.61602569 75.09342172 -135.08398438 49.18530273 C-134.48585938 48.09217773 -133.88773438 46.99905273 -133.27148438 45.87280273 C-129.87815488 39.83733883 -125.4689652 35.46567211 -120.08398438 31.18530273 C-119.34148437 30.23655273 -118.59898438 29.28780273 -117.83398438 28.31030273 C-114.57678039 24.28906324 -110.43751973 21.89330538 -106.08398438 19.18530273 C-105.13523438 18.54334961 -104.18648437 17.90139648 -103.20898438 17.23999023 C-91.03626168 9.23642506 -78.38771645 4.89685481 -63.91210938 3.54858398 C-60.29001862 3.20485496 -56.73886818 2.6928271 -53.14648438 2.12280273 C-35.54562355 -0.36274086 -17.73527927 -0.00250772 0 0 Z M-62.53710938 187.35717773 C-64.57505438 189.62017188 -66.53655121 191.53482558 -68.89648438 193.43530273 C-71.35792083 195.46376362 -73.39632486 197.62645848 -75.45898438 200.06030273 C-78.64725362 203.82045884 -82.16599199 206.96165448 -85.89257812 210.17749023 C-88.00322446 212.1113088 -89.81408982 214.11476849 -91.64648438 216.31030273 C-94.49161604 219.68766457 -97.52910199 222.08193428 -101.11523438 224.62670898 C-103.9020815 226.83296296 -106.02862102 229.45737875 -108.29882812 232.17749023 C-110.12603366 234.23259668 -112.04870626 235.97245352 -114.14648438 237.74780273 C-120.85747829 242.97226839 -120.85747829 242.97226839 -124.41821289 250.29785156 C-124.24435769 273.16814607 -115.89291212 291.30703758 -100.08398438 307.18530273 C-99.44976562 307.85432617 -98.81554687 308.52334961 -98.16210938 309.21264648 C-75.86784975 330.96434669 -36.96741309 329.66796902 -8.21679688 329.58374023 C-5.71646033 329.58577058 -3.21612436 329.58868989 -0.71578979 329.59243774 C4.48266327 329.59681766 9.68095991 329.59057286 14.87939453 329.57641602 C21.45979242 329.55934519 28.03982242 329.56918052 34.62020683 329.58713341 C39.7717249 329.59810511 44.92315939 329.59446414 50.07468033 329.58675003 C52.49735689 329.58478381 54.92004167 329.58707727 57.34270859 329.59418869 C92.61381036 330.57819759 92.61381036 330.57819759 125.91601562 321.18530273 C124.70945312 319.82405273 124.70945312 319.82405273 123.47851562 318.43530273 C120.6542175 315.15911691 118.0939492 311.73872923 115.54101562 308.24780273 C112.2291245 303.77814127 108.76414733 299.87858823 104.74804688 296.04467773 C102.92351594 294.19291499 101.4320896 292.29391236 99.91601562 290.18530273 C97.80997106 287.25738711 95.56860152 284.75834665 92.97851562 282.24780273 C90.24717757 279.59892017 87.87372667 276.92509605 85.60351562 273.87280273 C81.93523541 268.98176245 77.67982448 264.87953657 73.27148438 260.66577148 C71.18080612 258.46414513 70.18714129 256.8631408 68.91601562 254.18530273 C67.45114632 252.73456059 67.45114632 252.73456059 65.66601562 251.37280273 C60.73605702 247.21793817 56.45658048 242.52127722 52.10449219 237.77978516 C49.26786626 234.69284507 46.408353 231.65746906 43.41992188 228.71655273 C41.07003362 226.39321055 38.86285473 224.00658442 36.71655273 221.49462891 C32.85142031 217.05312798 28.76246042 212.87012423 24.60351562 208.70483398 C23.83096436 207.92895432 23.05841309 207.15307465 22.26245117 206.35368347 C20.64014277 204.72634582 19.01650736 203.10033008 17.39160156 201.47558594 C14.91768072 198.99946931 12.45188407 196.51544837 9.98632812 194.03100586 C8.40088093 192.44262569 6.81495944 190.85471876 5.22851562 189.26733398 C4.13446411 188.1625042 4.13446411 188.1625042 3.01831055 187.03535461 C-6.43700996 177.62173351 -15.69179618 172.17909397 -29.33398438 171.56030273 C-43.35497116 172.04823881 -53.27558424 177.05874701 -62.53710938 187.35717773 Z " fill="#057DCB" transform="translate(228.083984375,73.814697265625)"/>
<path d="M0 0 C1.11568359 0.10634766 1.11568359 0.10634766 2.25390625 0.21484375 C5.49404807 1.47264478 6.59632619 3.13300523 8.4375 6.0625 C9.40159032 9.43508836 10.1271592 12.73905457 10.77148438 16.1796875 C11.83323279 21.13763165 13.1853179 23.9533776 17.4375 27.0625 C20.9681892 28.29630226 24.60873441 28.82963232 28.28710938 29.4453125 C32.18722717 30.20128247 34.00213235 30.63195446 36.90625 33.50390625 C38.72472549 36.54243035 39.36509244 38.5145297 39.4375 42.0625 C38.18815669 46.0447818 37.21632042 47.62229715 33.5625 49.6875 C31.14691226 50.57718114 28.71233159 51.2638866 26.23046875 51.953125 C25.08191406 52.27796875 23.93335938 52.6028125 22.75 52.9375 C21.65300781 53.22367188 20.55601562 53.50984375 19.42578125 53.8046875 C15.83665548 55.31540449 14.49042167 56.78166257 12.4375 60.0625 C11.65569635 62.46812358 11.65569635 62.46812358 11.375 64.9375 C10.385919 70.66734857 9.24196001 75.10766832 5.1875 79.5 C1.56651018 81.55738058 -0.45223243 81.71148962 -4.5625 81.0625 C-10.21570289 77.34691607 -11.82238948 73.94384848 -13.4375 67.5 C-13.75460937 66.36788086 -13.75460937 66.36788086 -14.078125 65.21289062 C-15.05473022 61.61403696 -15.5625 58.85015763 -15.5625 55.0625 C-16.40167969 54.96775391 -16.40167969 54.96775391 -17.2578125 54.87109375 C-23.0231945 53.99052898 -27.8794012 52.20582112 -33.0625 49.625 C-33.97926514 49.17435181 -33.97926514 49.17435181 -34.91455078 48.71459961 C-38.07017699 47.08724486 -39.55063505 46.08029742 -41.5625 43.0625 C-41.3423478 36.12770564 -41.3423478 36.12770564 -39.00390625 32.93359375 C-35.79138155 30.47151482 -32.51179748 29.8278129 -28.625 29.0625 C-21.31559902 27.62450445 -21.31559902 27.62450445 -15.5625 23.0625 C-14.25518291 19.97375535 -13.40369464 16.8050119 -12.5625 13.5625 C-10.30583779 4.8638544 -10.30583779 4.8638544 -7.16015625 1.47265625 C-4.37944243 -0.03687411 -3.10274647 -0.3939139 0 0 Z " fill="#067ECC" transform="translate(396.5625,79.9375)"/>
<path d="M0 0 C3.75528959 3.92343688 4.49931902 8.89134224 5.83984375 14.00390625 C7.14088629 17.36383767 7.86109901 18.32305289 11 20 C14.30653029 21.08566475 17.63802821 21.95730365 21.00390625 22.83984375 C24.26794066 24.10375277 25.33622816 24.97182011 27 28 C27.64116685 31.76685522 27.3861333 33.3993482 25.3125 36.625 C21.60954471 39.97272993 16.57035907 40.85273569 11.86328125 42.10546875 C8.90356812 42.78704801 8.90356812 42.78704801 7 45 C5.95370033 48.54774719 5.07923367 52.12344976 4.1953125 55.71484375 C2.9305822 59.19078552 2.22728481 60.3106708 -1 62 C-5.16590348 62.6059496 -7.21752955 62.4868705 -10.8125 60.25 C-13.59186811 56.12065309 -14.03845894 52.52809801 -14.640625 47.64453125 C-14.85125989 45.02856307 -14.85125989 45.02856307 -16 43 C-17.87207325 42.30707087 -19.77426224 41.69450005 -21.6875 41.125 C-26.81185992 39.4961856 -31.13696022 37.86303978 -35 34 C-35.27323227 30.926137 -35.3814172 28.74426352 -33.95703125 25.96484375 C-31.21865453 23.21553538 -28.07246735 22.42044 -24.4375 21.375 C-19.28179813 20.01062872 -19.28179813 20.01062872 -15 17 C-14.20039337 13.74006526 -13.59462613 10.46288406 -12.9765625 7.1640625 C-11.90402301 3.68903455 -10.78832493 2.27156973 -8 0 C-5.03475663 -1.48262169 -3.14877613 -0.83538959 0 0 Z " fill="#067DCB" transform="translate(311,159)"/>
<path d="M0 0 C0.84921524 0.02996567 1.69843048 0.05993134 2.57337952 0.09080505 C24.88115162 0.8433311 47.17589999 1.09981408 69.49609375 1.09765625 C70.49466676 1.09755971 70.49466676 1.09755971 71.51341295 1.09746122 C79.72417136 1.09582059 87.93490971 1.085502 96.14565623 1.07202661 C103.23945155 1.06059789 110.33324815 1.0552885 117.42705047 1.05032361 C131.95137645 1.04002965 146.47568796 1.02258483 161 1 C161 1.33 161 1.66 161 2 C155.30419544 2.77223952 149.65820768 3.27623744 143.91796875 3.55419922 C142.62212105 3.61736485 142.62212105 3.61736485 141.3000946 3.68180656 C130.97261765 4.14368044 120.64830754 4.14467336 110.3125 4.1328125 C108.19181304 4.13348898 106.07112615 4.13446185 103.95043945 4.13571167 C99.54019419 4.13717248 95.12996941 4.13508681 90.71972656 4.13037109 C85.1262092 4.12467484 79.53273986 4.12796261 73.93922424 4.13394356 C69.57034965 4.13759327 65.20148605 4.13639056 60.83261108 4.13381577 C58.77257277 4.13315863 56.7125334 4.13393132 54.65249634 4.13629532 C44.46678959 4.14542489 34.3040907 4.05270727 24.12890625 3.55810547 C23.33554367 3.51990755 22.54218109 3.48170963 21.72477722 3.4423542 C14.42263935 3.04581765 7.22361225 2.12732131 0 1 C0 0.67 0 0.34 0 0 Z " fill="#4398CC" transform="translate(169,424)"/>
<path d="M0 0 C3.83125894 0.00573235 7.66244832 0.00238258 11.4937048 -0.00357246 C14.48192356 -0.00720584 17.47012613 -0.0060274 20.45834541 -0.00344467 C21.87074352 -0.00278494 23.28314317 -0.00356983 24.69553947 -0.00592422 C32.40698738 -0.01597722 39.98726347 0.14262343 47.64135742 1.13037109 C47.64135742 1.46037109 47.64135742 1.79037109 47.64135742 2.13037109 C46.5650708 2.12513428 45.48878418 2.11989746 44.37988281 2.11450195 C21.7327828 2.01502621 -0.90273497 2.12658998 -23.54614258 2.56787109 C-25.18073929 2.59734329 -25.18073929 2.59734329 -26.84835815 2.62741089 C-29.92875155 2.68407379 -33.00891122 2.74770193 -36.08911133 2.81396484 C-37.01620911 2.83068237 -37.94330688 2.8473999 -38.89849854 2.86462402 C-42.95314059 2.55913743 -42.95314059 2.55913743 -46.35864258 4.13037109 C-48.39147966 4.41803317 -50.43279122 4.64622146 -52.47583008 4.84912109 C-53.72235352 4.97673828 -54.96887695 5.10435547 -56.25317383 5.23583984 C-58.22350586 5.43113281 -58.22350586 5.43113281 -60.23364258 5.63037109 C-62.81468041 5.8877105 -65.39542744 6.14798863 -67.97583008 6.41162109 C-69.7022876 6.58274414 -69.7022876 6.58274414 -71.46362305 6.75732422 C-74.41983954 7.04388592 -74.41983954 7.04388592 -77.35864258 8.13037109 C-78.01864258 7.80037109 -78.67864258 7.47037109 -79.35864258 7.13037109 C-79.68864258 7.79037109 -80.01864258 8.45037109 -80.35864258 9.13037109 C-81.01864258 8.47037109 -81.67864258 7.81037109 -82.35864258 7.13037109 C-74.8931272 4.56843923 -67.63044529 3.32855753 -59.79614258 2.50537109 C-58.74362305 2.38419922 -57.69110352 2.26302734 -56.60668945 2.13818359 C-37.74506334 0.05377566 -18.94770331 -0.02857645 0 0 Z " fill="#368DC5" transform="translate(228.358642578125,73.86962890625)"/>
<path d="M0 0 C0.33 0 0.66 0 1 0 C1.1943296 56.85661125 1.1943296 56.85661125 0.625 74.75 C0.59414307 75.86850342 0.56328613 76.98700684 0.53149414 78.1394043 C0.4927417 79.14011963 0.45398926 80.14083496 0.4140625 81.171875 C0.3826416 81.9978418 0.3512207 82.82380859 0.31884766 83.67480469 C-0.04780644 86.34862825 -0.91006099 88.54039827 -2 91 C-2.33 91 -2.66 91 -3 91 C-2.21598325 60.65918918 -1.11021715 30.33034909 0 0 Z " fill="#4192C8" transform="translate(428,232)"/>
<path d="M0 0 C0.33 0 0.66 0 1 0 C1.33 2.31 1.66 4.62 2 7 C1.34 7 0.68 7 0 7 C-0.01030746 8.2004747 -0.02061493 9.4009494 -0.03123474 10.63780212 C-0.12878885 21.92482664 -0.23150537 33.21179381 -0.33933926 44.49872494 C-0.3946164 50.30210869 -0.44804392 56.10549744 -0.49731445 61.90893555 C-0.54488751 67.50455332 -0.59722748 73.10010766 -0.65294075 78.6956501 C-0.6733964 80.83557122 -0.69210404 82.97550975 -0.70907402 85.11546135 C-0.73304723 88.10169681 -0.76311108 91.08781117 -0.79467773 94.07397461 C-0.8004332 94.96805023 -0.80618866 95.86212585 -0.81211853 96.78329468 C-0.88594784 102.88594784 -0.88594784 102.88594784 -2 104 C-2.36760731 106.32817964 -2.70241581 108.6618385 -3 111 C-3.33 111 -3.66 111 -4 111 C-3.97199814 110.28660965 -3.94399628 109.5732193 -3.91514587 108.83821106 C-3.32427108 93.43780929 -2.91163963 78.04761504 -2.75390625 62.63671875 C-2.73709982 61.07040396 -2.72028461 59.50408926 -2.70346069 57.93777466 C-2.63647986 51.55614581 -2.57368742 45.1745068 -2.52319336 38.79272461 C-2.49127513 34.80931897 -2.45005404 30.82609828 -2.40299797 26.84284401 C-2.38716063 25.35150239 -2.37475684 23.86011963 -2.36609077 22.3687191 C-2.32051904 14.67514244 -2.06477818 7.45829479 0 0 Z " fill="#3E92C8" transform="translate(406,220)"/>
<path d="M0 0 C0.495 0.99 0.495 0.99 1 2 C0.25 4.0625 0.25 4.0625 -1 6 C-1.99 6.33 -2.98 6.66 -4 7 C-5.31034495 8.72612703 -5.31034495 8.72612703 -6.4375 10.8125 C-8.32863728 13.97575365 -10.08493692 16.66794953 -13 19 C-13.99 19 -14.98 19 -16 19 C-16.268125 19.5775 -16.53625 20.155 -16.8125 20.75 C-18.02929189 23.05550043 -19.30333879 25.02056192 -21 27 C-21.66 27 -22.32 27 -23 27 C-23 27.66 -23 28.32 -23 29 C-23.99 29.33 -24.98 29.66 -26 30 C-27.37195574 31.29355827 -28.71182656 32.62298702 -30 34 C-30.99 33.67 -31.98 33.34 -33 33 C-22.11 22.11 -11.22 11.22 0 0 Z " fill="#3D93CD" transform="translate(148,242)"/>
<path d="M0 0 C4.97925758 1.27376357 7.82526467 2.91819743 11 7 C12.37177164 11.27669983 12.24100917 14.13268212 10.5 18.1875 C6.7662825 24.76595465 0.27400166 26.42889407 -6.5703125 28.484375 C-9.11517803 29.02444293 -11.40622722 29.09230508 -14 29 C-13.484375 28.7525 -12.96875 28.505 -12.4375 28.25 C-10.3776807 27.19368241 -8.42279885 26.06113194 -6.4375 24.875 C-3 23 -3 23 0 23 C0.33 22.34 0.66 21.68 1 21 C1.99 20.67 2.98 20.34 4 20 C4.66 20.33 5.32 20.66 6 21 C6 19.35 6 17.7 6 16 C6.66 16 7.32 16 8 16 C8 15.34 8 14.68 8 14 C8.66 14 9.32 14 10 14 C9.81870185 10.56206661 9.81870185 10.56206661 9 7 C7.08235826 5.6237206 7.08235826 5.6237206 5 5 C4.67 4.34 4.34 3.68 4 3 C2.35 3 0.7 3 -1 3 C-0.67 2.01 -0.34 1.02 0 0 Z " fill="#3C93CA" transform="translate(289,78)"/>
<path d="M0 0 C0.33 0 0.66 0 1 0 C1.33 24.09 1.66 48.18 2 73 C6.95 68.05 6.95 68.05 12 63 C12 66.93235469 10.45054659 68.02964049 8 71 C7.67 71.99 7.34 72.98 7 74 C3.535 74.495 3.535 74.495 0 75 C0 50.25 0 25.5 0 0 Z " fill="#8AC0E2" transform="translate(102,213)"/>
<path d="M0 0 C0 4.40740516 -2.40409714 5.85294141 -5.38647461 8.90454102 C-6.14581299 9.65791748 -6.90515137 10.41129395 -7.6875 11.1875 C-8.45392822 11.9518335 -9.22035645 12.71616699 -10.01000977 13.50366211 C-24.91207787 28 -24.91207787 28 -32 28 C-32 27.01 -32 26.02 -32 25 C-30.68 25 -29.36 25 -28 25 C-28 24.34 -28 23.68 -28 23 C-27.34 22.67 -26.68 22.34 -26 22 C-25.67 21.01 -25.34 20.02 -25 19 C-23.68 19.33 -22.36 19.66 -21 20 C-21 19.01 -21 18.02 -21 17 C-19.68 17 -18.36 17 -17 17 C-16.67 16.01 -16.34 15.02 -16 14 C-15.01 14 -14.02 14 -13 14 C-12.9071875 12.8553125 -12.9071875 12.8553125 -12.8125 11.6875 C-12 9 -12 9 -9.5625 7.1875 C-7 6 -7 6 -5 6 C-5 5.01 -5 4.02 -5 3 C-4.01 3 -3.02 3 -2 3 C-2 2.34 -2 1.68 -2 1 C-1.34 0.67 -0.68 0.34 0 0 Z " fill="#3A8FCB" transform="translate(405,386)"/>
<path d="M0 0 C1.875 0.3125 1.875 0.3125 4 1 C6.34549674 4.51824511 6.57991403 5.85775694 6 10 C2.43266888 15.54918175 -2.88960855 16.45201145 -9.0390625 18.10546875 C-12.14630934 18.88783001 -12.14630934 18.88783001 -15 21 C-15.3125 18.6875 -15.3125 18.6875 -15 16 C-11.17728435 12.64064382 -7.91307613 12.82134269 -3 13 C-0.68963085 12.57145005 -0.68963085 12.57145005 1 12 C2.29616272 5.71148966 2.29616272 5.71148966 0 0 Z " fill="#4294C9" transform="translate(332,183)"/>
<path d="M0 0 C2 1.5 2 1.5 4 4 C4.35800135 6.75871627 4.18660165 9.20097524 4 12 C6.475 12.99 6.475 12.99 9 14 C9 14.66 9 15.32 9 16 C11.64 16 14.28 16 17 16 C18.78198477 12.69289314 19.96157065 9.31785001 21.125 5.75 C21.47820312 4.67234375 21.83140625 3.5946875 22.1953125 2.484375 C22.46085937 1.66453125 22.72640625 0.8446875 23 0 C23.33 0 23.66 0 24 0 C24.33551114 5.48001528 23.64469957 9.16658354 21 14 C18.19029806 17.04384377 16.66222276 17.89163628 12.5625 18.5625 C8.21782166 17.87649816 5.63104556 16.46022355 3 13 C0.92418497 8.61425547 0 4.85850378 0 0 Z " fill="#5DA1CD" transform="translate(383,143)"/>
<path d="M0 0 C1.65 0 3.3 0 5 0 C5.33 1.32 5.66 2.64 6 4 C6.99 4 7.98 4 9 4 C9.33 4.66 9.66 5.32 10 6 C10.99 6.33 11.98 6.66 13 7 C13.33 9.31 13.66 11.62 14 14 C15.32 14.33 16.64 14.66 18 15 C18 15.99 18 16.98 18 18 C18.99 18 19.98 18 21 18 C21.33 19.65 21.66 21.3 22 23 C17.1579671 19.14838292 12.93536285 14.91463569 8.75 10.375 C8.23083008 9.81272705 7.71166016 9.2504541 7.17675781 8.67114258 C4.62725471 5.87967657 2.1968356 3.08459793 0 0 Z " fill="#3D90CA" transform="translate(272,303)"/>
<path d="M0 0 C19.51746258 4.65645046 19.51746258 4.65645046 23 7.8125 C24.27089987 10.59259348 24.80519913 12.94811963 25 16 C24.34 16.99 23.68 17.98 23 19 C22.87625 17.865625 22.7525 16.73125 22.625 15.5625 C22.41875 14.386875 22.2125 13.21125 22 12 C21.34 11.67 20.68 11.34 20 11 C20 10.34 20 9.68 20 9 C18.68 9 17.36 9 16 9 C15.34 8.01 14.68 7.02 14 6 C10.89188713 5.19458793 10.89188713 5.19458793 7.375 4.8125 C5.59222656 4.57466797 5.59222656 4.57466797 3.7734375 4.33203125 C2.85820312 4.22246094 1.94296875 4.11289063 1 4 C0.67 2.68 0.34 1.36 0 0 Z " fill="#4B9ACB" transform="translate(411,106)"/>
<path d="M0 0 C-2.34680136 2.34680136 -2.92114355 2.27917223 -6.11328125 2.45703125 C-6.94375977 2.5152002 -7.77423828 2.57336914 -8.62988281 2.63330078 C-9.51514648 2.69243652 -10.40041016 2.75157227 -11.3125 2.8125 C-20.0129665 3.51122593 -27.07221606 5.20970914 -35 9 C-35.33 8.01 -35.66 7.02 -36 6 C-32.91190305 4.23537317 -31.76687864 4 -28 4 C-28 3.34 -28 2.68 -28 2 C-18.57182803 0.53948097 -9.56470344 -0.29032827 0 0 Z " fill="#4D9BCA" transform="translate(179,107)"/>
<path d="M0 0 C1.2989839 0.90626784 2.58893167 1.82549537 3.875 2.75 C4.59429687 3.26046875 5.31359375 3.7709375 6.0546875 4.296875 C8 6 8 6 9.0078125 8.078125 C10.2773747 10.53727697 11.55170065 10.81266686 14 12 C15.703125 13.9453125 15.703125 13.9453125 17.25 16.125 C17.77078125 16.84945313 18.2915625 17.57390625 18.828125 18.3203125 C19.21484375 18.87460937 19.6015625 19.42890625 20 20 C19.34 20.33 18.68 20.66 18 21 C18 20.34 18 19.68 18 19 C16.68 18.67 15.36 18.34 14 18 C14 17.34 14 16.68 14 16 C13.030625 15.71125 12.06125 15.4225 11.0625 15.125 C8 14 8 14 7 12 C7.66 12 8.32 12 9 12 C8.67 11.01 8.34 10.02 8 9 C7.01 9 6.02 9 5 9 C2.20458537 6.20458537 0.79177162 3.82689618 0 0 Z " fill="#2D8DC6" transform="translate(267,262)"/>
<path d="M0 0 C0.66 0 1.32 0 2 0 C2.66 3.96 3.32 7.92 4 12 C5.85625 12.2784375 5.85625 12.2784375 7.75 12.5625 C8.44609375 12.66691406 9.1421875 12.77132812 9.859375 12.87890625 C12.33941547 13.12547949 12.33941547 13.12547949 16 12 C16.66 9.03 17.32 6.06 18 3 C19.23020775 7.92083098 18.28939698 9.58473439 16 14 C12.24952518 16.50031654 10.44143734 16.53603554 6 16 C3.125 14.1875 3.125 14.1875 1 11 C0.30473216 7.3331059 0.07180942 3.72756147 0 0 Z " fill="#3080B6" transform="translate(297,205)"/>
<path d="M0 0 C0.33 0 0.66 0 1 0 C1.33 2.31 1.66 4.62 2 7 C2.99 7.33 3.98 7.66 5 8 C4.34 10.31 3.68 12.62 3 15 C-1.76272672 16.02977875 -4.65885463 16.39511469 -9 14 C-8.05125 13.62875 -7.1025 13.2575 -6.125 12.875 C-2.80057119 11.281532 -2.80057119 11.281532 -1.6875 8.125 C-0.78688069 4.07381277 -0.78688069 4.07381277 0 0 Z " fill="#268DD1" transform="translate(298,166)"/>
<path d="M0 0 C3.89271432 2.167295 7.03709814 4.67413029 10.3125 7.6875 C11.19550781 8.49574219 12.07851563 9.30398438 12.98828125 10.13671875 C13.65214844 10.75160156 14.31601562 11.36648438 15 12 C14.67 12.66 14.34 13.32 14 14 C11.41791754 12.8524078 9.73071461 11.75197398 7.625 9.8125 C5.07455093 7.64540789 5.07455093 7.64540789 1.6875 8.25 C0.800625 8.4975 -0.08625 8.745 -1 9 C-1 8.34 -1 7.68 -1 7 C-0.34 6.67 0.32 6.34 1 6 C1.65213292 3.97536745 1.65213292 3.97536745 2 2 C1.34 2 0.68 2 0 2 C0 1.34 0 0.68 0 0 Z " fill="#4497CE" transform="translate(298,293)"/>
<path d="M0 0 C0.66 0.33 1.32 0.66 2 1 C-1.99147983 3.92708521 -5.75133954 4.6954863 -10.51953125 5.51953125 C-13.22041085 5.98024037 -13.22041085 5.98024037 -16.5625 7.25 C-21.11882571 8.24410743 -24.59195975 7.2994223 -29 6 C-29 5.67 -29 5.34 -29 5 C-27.84213989 4.82609741 -27.84213989 4.82609741 -26.66088867 4.64868164 C-23.16933879 4.12270172 -19.67841902 3.59265008 -16.1875 3.0625 C-14.97255859 2.88009766 -13.75761719 2.69769531 -12.50585938 2.50976562 C-11.34248047 2.33251953 -10.17910156 2.15527344 -8.98046875 1.97265625 C-7.37014771 1.72914429 -7.37014771 1.72914429 -5.72729492 1.48071289 C-2.91882528 1.05446994 -2.91882528 1.05446994 0 0 Z " fill="#4496CD" transform="translate(350,396)"/>
<path d="M0 0 C7.17127072 -0.60773481 7.17127072 -0.60773481 10.8125 2.0625 C14.93563587 7.59928245 16.422613 12.097321 16 19 C15.01 18.67 14.02 18.34 13 18 C12.90203125 17.34773438 12.8040625 16.69546875 12.703125 16.0234375 C11.77161672 10.5789322 10.92214672 6.13415465 7 2 C3.3634269 1.02649222 3.3634269 1.02649222 0 1 C0 0.67 0 0.34 0 0 Z " fill="#2784C2" transform="translate(412,213)"/>
<path d="M0 0 C1.23229062 3.69687185 0.24220725 5.08760031 -1.15869141 8.5703125 C-2.77589287 13.24076779 -3.40479013 18.13318922 -4.1875 23 C-4.36474609 24.06089844 -4.54199219 25.12179688 -4.72460938 26.21484375 C-5.15693479 28.80879626 -5.5818749 31.40372744 -6 34 C-6.33 34 -6.66 34 -7 34 C-7.02693575 31.87506859 -7.04636628 29.75004088 -7.0625 27.625 C-7.07410156 26.44164062 -7.08570312 25.25828125 -7.09765625 24.0390625 C-7 21 -7 21 -6 19 C-5.77377919 17.29636178 -5.59111527 15.58671299 -5.4375 13.875 C-5.35371094 12.96492187 -5.26992187 12.05484375 -5.18359375 11.1171875 C-5.12300781 10.41851562 -5.06242187 9.71984375 -5 9 C-4.34 9 -3.68 9 -3 9 C-2.814375 7.88625 -2.814375 7.88625 -2.625 6.75 C-2.04513299 4.19858515 -1.26291261 2.2732427 0 0 Z " fill="#62A9D4" transform="translate(112,146)"/>
<path d="M0 0 C-0.66 1.32 -1.32 2.64 -2 4 C-3.175625 3.979375 -4.35125 3.95875 -5.5625 3.9375 C-9.47495525 3.9583479 -13.17505244 4.08201259 -17 5 C-18.51294288 6.93597032 -18.51294288 6.93597032 -19 9 C-19.66 9 -20.32 9 -21 9 C-21.33 10.65 -21.66 12.3 -22 14 C-22.6875 12.3125 -22.6875 12.3125 -23 10 C-21.14763233 5.78071809 -19.02297519 4.09284483 -15 2 C-11.73828125 1.015625 -11.73828125 1.015625 -8.3125 0.25 C-7.17425781 -0.01296875 -6.03601563 -0.2759375 -4.86328125 -0.546875 C-2 -1 -2 -1 0 0 Z " fill="#58A4D0" transform="translate(378,108)"/>
<path d="M0 0 C1.1055189 0.93590504 2.20935453 1.87379858 3.3125 2.8125 C3.92738281 3.33457031 4.54226563 3.85664063 5.17578125 4.39453125 C8.51952278 7.3373102 8.51952278 7.3373102 10 9 C10 9.66 10 10.32 10 11 C10.53625 11.226875 11.0725 11.45375 11.625 11.6875 C14.78500863 13.43382056 17.2676983 15.6402849 20 18 C19.34 18.33 18.68 18.66 18 19 C17.67 19.66 17.34 20.32 17 21 C15.62437146 19.71034824 14.29233607 18.37310707 13 17 C13 16.34 13 15.68 13 15 C12.01 15 11.02 15 10 15 C9.67 13.35 9.34 11.7 9 10 C8.01 10 7.02 10 6 10 C4.94228261 8.36935236 3.94726954 6.69719127 3 5 C2.443125 4.443125 1.88625 3.88625 1.3125 3.3125 C0.879375 2.879375 0.44625 2.44625 0 2 C0 1.34 0 0.68 0 0 Z " fill="#57A7D4" transform="translate(319,312)"/>
<path d="M0 0 C0.99 0.33 1.98 0.66 3 1 C3.70491267 3.32206525 4.37212429 5.65593068 5 8 C5.66 8.33 6.32 8.66 7 9 C7.625 12.0625 7.625 12.0625 8 15 C9.32 14.67 10.64 14.34 12 14 C13 17 13 17 12 20 C12.87914688 22.6569191 12.87914688 22.6569191 14 25 C9.64703567 21.1112504 7.24832383 17.17917557 4.75 11.9375 C4.2240625 10.87692383 4.2240625 10.87692383 3.6875 9.79492188 C2.09885491 6.54125453 0.79359871 3.5471903 0 0 Z " fill="#55A1D4" transform="translate(86,362)"/>
<path d="M0 0 C0.66 0.33 1.32 0.66 2 1 C-1.86470086 5.07614346 -5.70824879 8.64318936 -10.35546875 11.80078125 C-12.85254247 13.62168774 -14.88288636 15.75457644 -17 18 C-17 16.68 -17 15.36 -17 14 C-16.01 14 -15.02 14 -14 14 C-14 12.35 -14 10.7 -14 9 C-12.68 9 -11.36 9 -10 9 C-10 8.34 -10 7.68 -10 7 C-9.01 7 -8.02 7 -7 7 C-6.67 5.68 -6.34 4.36 -6 3 C-5.01 3 -4.02 3 -3 3 C-1.31201173 1.56249809 -1.31201173 1.56249809 0 0 Z " fill="#358FC6" transform="translate(138,287)"/>
<path d="M0 0 C0 0.33 0 0.66 0 1 C-1.93552734 1.09087891 -1.93552734 1.09087891 -3.91015625 1.18359375 C-5.62761255 1.26805881 -7.34506002 1.35270377 -9.0625 1.4375 C-9.91005859 1.47681641 -10.75761719 1.51613281 -11.63085938 1.55664062 C-15.45230199 1.74845049 -19.09106462 2.01552969 -22.87109375 2.66015625 C-26.10871398 3.01180789 -27.35110493 2.80124865 -30 1 C-20.10356511 -1.55391868 -10.05315138 -1.90400594 0 0 Z " fill="#7CBBDA" transform="translate(211,221)"/>
<path d="M0 0 C3.95304214 0.580913 6.72970679 1.78798491 10.125 3.875 C10.97320312 4.38804687 11.82140625 4.90109375 12.6953125 5.4296875 C14.72979947 6.81589727 16.3432854 8.1916906 18 10 C17.01 10.33 16.02 10.66 15 11 C13.09765625 10.0390625 13.09765625 10.0390625 11.0625 8.625 C8.37093466 6.76839038 6.22474052 5.62041988 3 5 C2.87625 4.360625 2.7525 3.72125 2.625 3.0625 C2.315625 2.0415625 2.315625 2.0415625 2 1 C1.34 0.67 0.68 0.34 0 0 Z " fill="#398EC7" transform="translate(221,225)"/>
<path d="M0 0 C0.66 0.33 1.32 0.66 2 1 C-0.10034847 2.65091584 -2.20495833 4.29581238 -4.3125 5.9375 C-4.90740234 6.40607422 -5.50230469 6.87464844 -6.11523438 7.35742188 C-8.72700884 9.38555959 -10.83892403 10.94630801 -14 12 C-14.33 12.66 -14.66 13.32 -15 14 C-14.67 12.35 -14.34 10.7 -14 9 C-12.68 8.67 -11.36 8.34 -10 8 C-9.9175 7.38125 -9.835 6.7625 -9.75 6.125 C-9 4 -9 4 -7.25 2.875 C-6.5075 2.58625 -5.765 2.2975 -5 2 C-4.13375 1.608125 -3.2675 1.21625 -2.375 0.8125 C-1.59125 0.544375 -0.8075 0.27625 0 0 Z " fill="#4D9CD1" transform="translate(139,117)"/>
<path d="M0 0 C0.66 0 1.32 0 2 0 C0.84672731 7.7802874 -1.39483231 14.98610003 -5 22 C-5.66 22.33 -6.32 22.66 -7 23 C-6.690625 22.195625 -6.38125 21.39125 -6.0625 20.5625 C-4.97683637 16.9223337 -4.59636204 13.62570352 -4.34375 9.85546875 C-4.2303125 9.24316406 -4.116875 8.63085938 -4 8 C-3.34 7.67 -2.68 7.34 -2 7 C-1.26924352 4.6859378 -0.59861742 2.35171131 0 0 Z " fill="#6AADD7" transform="translate(421,351)"/>
<path d="M0 0 C0.33 0.99 0.66 1.98 1 3 C2.32 2.34 3.64 1.68 5 1 C5.33 2.32 5.66 3.64 6 5 C5.13375 5.0928125 5.13375 5.0928125 4.25 5.1875 C1.13207906 6.3134159 -0.01380163 8.41794211 -2 11 C-2.66 11 -3.32 11 -4 11 C-3.71758359 9.53984709 -3.42373386 8.08190207 -3.125 6.625 C-2.96257812 5.81289062 -2.80015625 5.00078125 -2.6328125 4.1640625 C-2 2 -2 2 0 0 Z " fill="#2486CA" transform="translate(389,82)"/>
<path d="M0 0 C-5.42013505 2.85788939 -10.96022179 5.7253328 -17 7 C-17.99 6.67 -18.98 6.34 -20 6 C-17.23776722 3.23776722 -14.79293383 3.42143709 -11 3 C-10.67 2.01 -10.34 1.02 -10 0 C-2.25 -1.125 -2.25 -1.125 0 0 Z " fill="#51A0D2" transform="translate(373,415)"/>
<path d="M0 0 C9.9 3.96 9.9 3.96 20 8 C15.31372982 9.17156754 12.71072376 8.84947478 8 8 C7.67 7.34 7.34 6.68 7 6 C4.97536745 5.34786708 4.97536745 5.34786708 3 5 C2.67 5.66 2.34 6.32 2 7 C1.34 4.69 0.68 2.38 0 0 Z " fill="#56A4D3" transform="translate(138,389)"/>
<path d="M0 0 C3.27509543 0.21582742 6.5448001 0.39097157 9.82421875 0.51757812 C11.55457642 0.60837907 13.27925904 0.79644894 15 1 C15.33 1.66 15.66 2.32 16 3 C12.27056178 2.86064456 8.54152904 2.71237699 4.8125 2.5625 C3.75740234 2.52318359 2.70230469 2.48386719 1.61523438 2.44335938 C0.59365234 2.40146484 -0.42792969 2.35957031 -1.48046875 2.31640625 C-2.41785889 2.27974854 -3.35524902 2.24309082 -4.32104492 2.20532227 C-6.95114982 2.00374401 -9.42766414 1.57321679 -12 1 C-12 0.67 -12 0.34 -12 0 C-7.56526932 -0.78259953 -4.36118156 -0.88092145 0 0 Z " fill="#0B72BB" transform="translate(168,422)"/>
<path d="M0 0 C1.32 0.33 2.64 0.66 4 1 C3.29875 1.680625 2.5975 2.36125 1.875 3.0625 C-0.84618539 5.76042739 -3.26095775 8.66593452 -5.66796875 11.64453125 C-6.10753906 12.09183594 -6.54710938 12.53914063 -7 13 C-7.66 13 -8.32 13 -9 13 C-9 12.01 -9 11.02 -9 10 C-8.01 10 -7.02 10 -6 10 C-6 8.35 -6 6.7 -6 5 C-4.35 4.67 -2.7 4.34 -1 4 C-0.67 2.68 -0.34 1.36 0 0 Z " fill="#3288C2" transform="translate(114,307)"/>
<path d="M0 0 C2 1.5 2 1.5 4 4 C4.35800135 6.75871627 4.18660165 9.20097524 4 12 C6.475 12.99 6.475 12.99 9 14 C9 14.66 9 15.32 9 16 C10.65 16 12.3 16 14 16 C14 16.33 14 16.66 14 17 C10.8125 17.375 10.8125 17.375 7 17 C2.73877144 13.11754732 1.16426661 9.71549061 0 4 C0 2.68 0 1.36 0 0 Z " fill="#408FC4" transform="translate(383,143)"/>
<path d="M0 0 C0 0.66 0 1.32 0 2 C-5.75 5 -5.75 5 -8 5 C-8 5.66 -8 6.32 -8 7 C-13.2734375 10.22265625 -13.2734375 10.22265625 -15 11 C-15.66 10.67 -16.32 10.34 -17 10 C-12.99008281 5.32176328 -6.44508155 0 0 0 Z " fill="#2883BF" transform="translate(140,84)"/>
<path d="M0 0 C3.70826651 -0.05837668 7.4164137 -0.09372277 11.125 -0.125 C12.69507813 -0.15013672 12.69507813 -0.15013672 14.296875 -0.17578125 C19.59269336 -0.20929909 24.0571059 -0.17213685 29 2 C29 2.33 29 2.66 29 3 C27.35425434 3.02688151 25.70838587 3.04634123 24.0625 3.0625 C23.14597656 3.07410156 22.22945312 3.08570313 21.28515625 3.09765625 C19 3 19 3 18 2 C16.65984779 1.84417697 15.31241097 1.74955858 13.96484375 1.68359375 C13.15595703 1.64169922 12.34707031 1.59980469 11.51367188 1.55664062 C10.66353516 1.51732422 9.81339844 1.47800781 8.9375 1.4375 C8.08349609 1.39431641 7.22949219 1.35113281 6.34960938 1.30664062 C4.23327963 1.20023298 2.11666187 1.09958269 0 1 C0 0.67 0 0.34 0 0 Z " fill="#3491CC" transform="translate(192,222)"/>
<path d="M0 0 C0.33 0 0.66 0 1 0 C1.14285714 8.57142857 1.14285714 8.57142857 0 12 C-0.66 12 -1.32 12 -2 12 C-2.309375 12.94875 -2.61875 13.8975 -2.9375 14.875 C-4 18 -4 18 -5 20 C-5.66 20 -6.32 20 -7 20 C-5.41699371 15.11906395 -3.66791258 10.30528602 -1.90234375 5.48828125 C-1.24226409 3.66806159 -0.612283 1.83684901 0 0 Z " fill="#62A8D5" transform="translate(398,345)"/>
<path d="M0 0 C2.475 0.495 2.475 0.495 5 1 C5 1.66 5 2.32 5 3 C5.598125 3.020625 6.19625 3.04125 6.8125 3.0625 C9 4 9 4 10.75 7.5625 C11.36875 9.2640625 11.36875 9.2640625 12 11 C8.57472113 9.52651292 6.35044942 7.59092154 3.75 4.9375 C3.04359375 4.22464844 2.3371875 3.51179688 1.609375 2.77734375 C0 1 0 1 0 0 Z " fill="#4C9ACB" transform="translate(106,394)"/>
<path d="M0 0 C0.78375 0.04125 1.5675 0.0825 2.375 0.125 C-0.92515998 4.26437592 -3.79824411 7.71162205 -8.625 10.125 C-8.625 8.475 -8.625 6.825 -8.625 5.125 C-7.635 5.455 -6.645 5.785 -5.625 6.125 C-5.50125 5.50625 -5.3775 4.8875 -5.25 4.25 C-4.29660357 1.00845214 -3.38899251 0.1613806 0 0 Z " fill="#51A1D2" transform="translate(152.625,271.875)"/>
<path d="M0 0 C3.465 1.485 3.465 1.485 7 3 C7 3.66 7 4.32 7 5 C7.92232422 5.03867188 7.92232422 5.03867188 8.86328125 5.078125 C15.54716981 5.54716981 15.54716981 5.54716981 18.0625 8.0625 C18.5265625 9.0215625 18.5265625 9.0215625 19 10 C14.40059535 9.43455595 10.82558069 8.19661698 6.6875 6.125 C5.63949219 5.61195313 4.59148437 5.09890625 3.51171875 4.5703125 C1 3 1 3 0 0 Z " fill="#4E9CCD" transform="translate(356,123)"/>
<path d="M0 0 C4.49699606 3.65461928 8.62848394 7.25880554 12 12 C11.67 12.99 11.34 13.98 11 15 C8 14 8 14 7.0625 12.3125 C6.711875 11.549375 6.36125 10.78625 6 10 C5.34 9.01 4.68 8.02 4 7 C2.45428722 4.68143083 1.20381448 2.49361571 0 0 Z " fill="#58A0D2" transform="translate(367,359)"/>
<path d="M0 0 C3.04261908 0.3259949 3.9801219 0.97895261 6.125 3.25 C8.59344415 6.87038475 10 9.59080211 10 14 C5.98235547 9.59398317 2.79692561 5.27112904 0 0 Z " fill="#5DA0D2" transform="translate(340,377)"/>
<path d="M0 0 C0.33 0 0.66 0 1 0 C1.19588601 3.6454342 1.38030536 7.2913579 1.5625 10.9375 C1.61857422 11.97841797 1.67464844 13.01933594 1.73242188 14.09179688 C1.78076172 15.08115234 1.82910156 16.07050781 1.87890625 17.08984375 C1.9260376 18.00628662 1.97316895 18.92272949 2.02172852 19.86694336 C2 22 2 22 1 23 C0.63239269 25.32817964 0.29758419 27.6618385 0 30 C-0.33 30 -0.66 30 -1 30 C-0.67 20.1 -0.34 10.2 0 0 Z " fill="#4896C5" transform="translate(403,301)"/>
<path d="M0 0 C1.65 0.33 3.3 0.66 5 1 C3.94434467 4.28426103 2.38339648 5.57151556 -0.5 7.25 C-4 9 -4 9 -6 9 C-6 8.01 -6 7.02 -6 6 C-4.68 6 -3.36 6 -2 6 C-2 5.34 -2 4.68 -2 4 C-1.34 3.67 -0.68 3.34 0 3 C0 2.01 0 1.02 0 0 Z " fill="#368CC5" transform="translate(379,405)"/>
<path d="M0 0 C0.33 0 0.66 0 1 0 C1.3690205 12.66970387 1.3690205 12.66970387 -1 18 C-1.33 18 -1.66 18 -2 18 C-2.20190089 11.64012196 -1.6277833 6.14778871 0 0 Z " fill="#66AFD3" transform="translate(80,154)"/>
<path d="M0 0 C0.66 0.33 1.32 0.66 2 1 C0.69144447 2.83615081 -0.62194462 4.66885789 -1.9375 6.5 C-2.66839844 7.5209375 -3.39929688 8.541875 -4.15234375 9.59375 C-4.76207031 10.3878125 -5.37179688 11.181875 -6 12 C-6.33 12 -6.66 12 -7 12 C-7 10.02 -7 8.04 -7 6 C-6.01 5.67 -5.02 5.34 -4 5 C-4 4.01 -4 3.02 -4 2 C-2.125 0.9375 -2.125 0.9375 0 0 Z " fill="#4E9BCF" transform="translate(120,134)"/>
<path d="M0 0 C0.66 0.33 1.32 0.66 2 1 C2.3690205 10.41002278 2.3690205 10.41002278 0 15 C-0.33 15 -0.66 15 -1 15 C-1.02685412 12.68756208 -1.04632841 10.3750373 -1.0625 8.0625 C-1.07410156 6.77472656 -1.08570312 5.48695313 -1.09765625 4.16015625 C-1 1 -1 1 0 0 Z " fill="#0F76BB" transform="translate(78,232)"/>
<path d="M0 0 C0.66 0 1.32 0 2 0 C1.6875 1.9375 1.6875 1.9375 1 4 C0.01 4.33 -0.98 4.66 -2 5 C-2.68132451 6.66072849 -3.34742127 8.327767 -4 10 C-4.99 10.66 -5.98 11.32 -7 12 C-5.6393389 6.80474854 -3.64232612 3.82444243 0 0 Z " fill="#559ECB" transform="translate(100,113)"/>
<path d="M0 0 C4.41309542 3.15221101 7.00793014 6.55463907 10 11 C7.39619281 9.88408263 5.93900464 8.93328633 4 6.8125 C3.34 6.214375 2.68 5.61625 2 5 C-0.21858253 5.13641377 -0.21858253 5.13641377 -2 6 C-1.34 4.02 -0.68 2.04 0 0 Z " fill="#1F7BBC" transform="translate(362,355)"/>
<path d="M0 0 C0 3.93235469 -1.54945341 5.02964049 -4 8 C-4.33 8.99 -4.66 9.98 -5 11 C-7.0625 11.6875 -7.0625 11.6875 -9 12 C-8.45015228 8.12488273 -6.72444669 6.40423494 -3.9375 3.75 C-3.20402344 3.04359375 -2.47054687 2.3371875 -1.71484375 1.609375 C-1.14894531 1.07828125 -0.58304688 0.5471875 0 0 Z " fill="#5BA7D2" transform="translate(114,276)"/>
<path d="M0 0 C0.66 0 1.32 0 2 0 C2.99 4.29 3.98 8.58 5 13 C4.01 13 3.02 13 2 13 C0.54815522 8.46298506 -0.23509196 4.81938524 0 0 Z " fill="#60A4CD" transform="translate(297,205)"/>
<path d="M0 0 C0.66 0 1.32 0 2 0 C2 0.99 2 1.98 2 3 C1.34 3 0.68 3 0 3 C0.66 4.65 1.32 6.3 2 8 C-5.42857143 8.28571429 -5.42857143 8.28571429 -9 6 C-5.535 5.505 -5.535 5.505 -2 5 C-1.34 3.35 -0.68 1.7 0 0 Z " fill="#2C8CCC" transform="translate(294,192)"/>
<path d="M0 0 C-3 2 -3 2 -7 2 C-7.33 2.99 -7.66 3.98 -8 5 C-8.99 5.33 -9.98 5.66 -11 6 C-10.51812367 1.42217484 -10.51812367 1.42217484 -8.3125 -0.375 C-5.28902419 -1.19215562 -3.02252556 -0.68693763 0 0 Z " fill="#5DA6D1" transform="translate(311,159)"/>
<path d="M0 0 C1.2989839 0.90626784 2.58893167 1.82549537 3.875 2.75 C4.59429687 3.26046875 5.31359375 3.7709375 6.0546875 4.296875 C8.08570565 6.07503547 8.97855012 7.52701607 10 10 C5.25 9.25 5.25 9.25 3 7 C1.25372522 4.38058783 0.61277612 2.96175123 0 0 Z " fill="#4F9ACD" transform="translate(267,262)"/>
<path d="M0 0 C4.77962147 -0.19118486 8.60470084 0.01165038 13 2 C13.33 2.99 13.66 3.98 14 5 C12.22739369 4.54857225 10.4569632 4.08859477 8.6875 3.625 C7.20830078 3.24214844 7.20830078 3.24214844 5.69921875 2.8515625 C3 2 3 2 0 0 Z " fill="#509ECC" transform="translate(206,246)"/>
<path d="M0 0 C-0.93322896 3.22388187 -1.41299771 4.66015657 -4.375 6.375 C-7.13945539 7.03320367 -8.34311004 6.78010812 -11 6 C-9.54550599 4.9944239 -8.08627557 3.99569565 -6.625 3 C-5.40683594 2.1646875 -5.40683594 2.1646875 -4.1640625 1.3125 C-2 0 -2 0 0 0 Z " fill="#3C91C8" transform="translate(167,229)"/>
<path d="M0 0 C2.0625 2.25 2.0625 2.25 4 5 C3.67 6.32 3.34 7.64 3 9 C0.69 6.69 -1.62 4.38 -4 2 C-2.68 1.34 -1.36 0.68 0 0 Z " fill="#4695CE" transform="translate(254,279)"/>
<path d="M0 0 C0.99 0.33 1.98 0.66 3 1 C3 2.32 3 3.64 3 5 C0.36 5 -2.28 5 -5 5 C-5.33 4.01 -5.66 3.02 -6 2 C-4.7934375 1.7834375 -4.7934375 1.7834375 -3.5625 1.5625 C-1.07896294 1.25864751 -1.07896294 1.25864751 0 0 Z " fill="#0877C0" transform="translate(290,193)"/>
<path d="M0 0 C2.31025077 3.46537615 3.12889615 6.6446642 4.21875 10.625 C4.95663132 13.22411965 4.95663132 13.22411965 7 16 C4.625 15.625 4.625 15.625 2 14 C0.39149976 9.40890385 0 4.83876016 0 0 Z " fill="#3E8DC5" transform="translate(313,163)"/>
<path d="M0 0 C-0.66 1.32 -1.32 2.64 -2 4 C-5.3 4 -8.6 4 -12 4 C-11.67 3.01 -11.34 2.02 -11 1 C-9.00390625 0.234375 -9.00390625 0.234375 -6.5625 -0.25 C-5.75941406 -0.42015625 -4.95632813 -0.5903125 -4.12890625 -0.765625 C-2 -1 -2 -1 0 0 Z " fill="#3792C4" transform="translate(378,108)"/>
<path d="M0 0 C5.0302076 0.52537724 10.01885239 1.10594786 15 2 C15 2.33 15 2.66 15 3 C12.87506859 3.02693575 10.75004088 3.04636628 8.625 3.0625 C7.44164062 3.07410156 6.25828125 3.08570313 5.0390625 3.09765625 C2 3 2 3 0 2 C0 1.34 0 0.68 0 0 Z " fill="#489ACE" transform="translate(159,398)"/>
<path d="M0 0 C2.64752004 2.57784846 4.94432065 4.91648098 7 8 C3.62537285 7.45276317 1.91765 6.9451 -1 5 C-0.67 3.35 -0.34 1.7 0 0 Z " fill="#3F93CE" transform="translate(117,369)"/>
<path d="M0 0 C3.33333333 1.66666667 6.66666667 3.33333333 10 5 C10.625 7.0625 10.625 7.0625 11 9 C8 9 8 9 5.95703125 7.28515625 C5.24933594 6.55167969 4.54164063 5.81820313 3.8125 5.0625 C3.09707031 4.33160156 2.38164062 3.60070312 1.64453125 2.84765625 C0 1 0 1 0 0 Z " fill="#59A5D3" transform="translate(330,367)"/>
<path d="M0 0 C0.66 0 1.32 0 2 0 C1.29666462 2.97722547 0.41751463 5.85256543 -0.5625 8.75 C-0.96662109 9.94882813 -0.96662109 9.94882813 -1.37890625 11.171875 C-1.58386719 11.77515625 -1.78882813 12.3784375 -2 13 C-4 9.25 -4 9.25 -4 7 C-3.34 7 -2.68 7 -2 7 C-1.34 4.69 -0.68 2.38 0 0 Z " fill="#0A75C0" transform="translate(406,139)"/>
<path d="M0 0 C0.2475 0.515625 0.495 1.03125 0.75 1.5625 C1.47784518 2.9817981 2.23437502 4.38831876 3.05859375 5.75390625 C4.09427299 7.47048188 5.05147096 9.23377351 6 11 C5.67 11.66 5.34 12.32 5 13 C4.01 12.34 3.02 11.68 2 11 C2 10.01 2 9.02 2 8 C1.34 8 0.68 8 0 8 C0 5.36 0 2.72 0 0 Z " fill="#4592C5" transform="translate(109,353)"/>
<path d="M0 0 C7.20759389 -0.61081304 7.20759389 -0.61081304 11 2.3125 C13 5 13 5 13 8 C8.125 4.25 8.125 4.25 7 2 C4.67843403 1.59270772 2.3431213 1.25561323 0 1 C0 0.67 0 0.34 0 0 Z " fill="#5C96C6" transform="translate(412,213)"/>
<path d="M0 0 C0 3 0 3 -1.53125 4.82421875 C-2.1809375 5.43910156 -2.830625 6.05398438 -3.5 6.6875 C-4.1496875 7.31011719 -4.799375 7.93273437 -5.46875 8.57421875 C-5.9740625 9.04472656 -6.479375 9.51523437 -7 10 C-7.33 9.01 -7.66 8.02 -8 7 C-7.01 6.67 -6.02 6.34 -5 6 C-5 5.01 -5 4.02 -5 3 C-4.01 3 -3.02 3 -2 3 C-2 2.34 -2 1.68 -2 1 C-1.34 0.67 -0.68 0.34 0 0 Z " fill="#529CD1" transform="translate(405,386)"/>
<path d="M0 0 C1.32 0.33 2.64 0.66 4 1 C4 1.99 4 2.98 4 4 C4.99 4 5.98 4 7 4 C7.33 5.65 7.66 7.3 8 9 C6.84775972 8.07038578 5.70340824 7.1309875 4.5625 6.1875 C3.60537109 5.40439453 3.60537109 5.40439453 2.62890625 4.60546875 C1 3 1 3 0 0 Z " fill="#5FA5D6" transform="translate(286,317)"/>
<path d="M0 0 C1.99097846 2.98646769 2.94124926 5.59687262 4 9 C0.06153846 5.67692308 0.06153846 5.67692308 -0.25 2.25 C-0.1675 1.5075 -0.085 0.765 0 0 Z M-3 3 C-2.34 3 -1.68 3 -1 3 C-0.67 4.32 -0.34 5.64 0 7 C-1.32 6.67 -2.64 6.34 -4 6 C-3.67 5.01 -3.34 4.02 -3 3 Z " fill="#0477BF" transform="translate(405,97)"/>
<path d="M0 0 C0 0.66 0 1.32 0 2 C-1.4562672 2.36256858 -2.91511185 2.71479793 -4.375 3.0625 C-5.59316406 3.35833984 -5.59316406 3.35833984 -6.8359375 3.66015625 C-9 4 -9 4 -11 3 C-11.33 3.66 -11.66 4.32 -12 5 C-12.66 4.34 -13.32 3.68 -14 3 C-12.4188708 2.49307308 -10.83498617 1.99473557 -9.25 1.5 C-7.92742187 1.08234375 -7.92742187 1.08234375 -6.578125 0.65625 C-4 0 -4 0 0 0 Z " fill="#85BBDD" transform="translate(160,78)"/>
<path d="M0 0 C1.32 0.66 2.64 1.32 4 2 C4.99 1.34 5.98 0.68 7 0 C6.67 1.65 6.34 3.3 6 5 C1.25 4.25 1.25 4.25 -1 2 C-0.67 1.34 -0.34 0.68 0 0 Z " fill="#3289C5" transform="translate(379,372)"/>
<path d="M0 0 C3 0 3 0 4.7890625 1.6796875 C5.39492187 2.40414062 6.00078125 3.12859375 6.625 3.875 C7.54152344 4.95394531 7.54152344 4.95394531 8.4765625 6.0546875 C10 8 10 8 11 10 C8.06120516 8.64763423 5.70767089 7.10057341 3.25 5 C2.63640625 4.484375 2.0228125 3.96875 1.390625 3.4375 C0 2 0 2 0 0 Z " fill="#0F6FB3" transform="translate(237,235)"/>
<path d="M0 0 C1.32 0.33 2.64 0.66 4 1 C3.67 2.32 3.34 3.64 3 5 C2.67 4.34 2.34 3.68 2 3 C1.54625 3.495 1.0925 3.99 0.625 4.5 C-1 6 -1 6 -3 6 C-3 5.01 -3 4.02 -3 3 C-2.34 3 -1.68 3 -1 3 C-0.67 2.01 -0.34 1.02 0 0 Z " fill="#0779C2" transform="translate(388,90)"/>
<path d="M0 0 C4.43090471 1.20842856 6.98112756 2.51668565 10 6 C9.01 6.33 8.02 6.66 7 7 C6.4121875 6.01 6.4121875 6.01 5.8125 5 C4.14583333 2.70833333 4.14583333 2.70833333 1.3125 2.75 C0.549375 2.8325 -0.21375 2.915 -1 3 C-0.67 2.01 -0.34 1.02 0 0 Z " fill="#63A7D2" transform="translate(289,78)"/>
<path d="M0 0 C0 0.33 0 0.66 0 1 C-4.51617599 1.07654536 -8.59085217 1.10228696 -13 0 C-13 -0.33 -13 -0.66 -13 -1 C-7.96488101 -2.0070238 -4.76052962 -1.97387813 0 0 Z " fill="#2781BC" transform="translate(169,423)"/>
<path d="M0 0 C0.66 0.33 1.32 0.66 2 1 C0.88121617 2.17262904 -0.24523051 3.33795138 -1.375 4.5 C-2.00148437 5.1496875 -2.62796875 5.799375 -3.2734375 6.46875 C-5 8 -5 8 -7 8 C-6.67 6.35 -6.34 4.7 -6 3 C-5.01 3 -4.02 3 -3 3 C-1.31201173 1.56249809 -1.31201173 1.56249809 0 0 Z " fill="#71BCE1" transform="translate(138,287)"/>
<path d="M0 0 C0.99 0.66 1.98 1.32 3 2 C3 2.66 3 3.32 3 4 C3.66 4 4.32 4 5 4 C4.67 5.32 4.34 6.64 4 8 C2.02 5.69 0.04 3.38 -2 1 C-1.34 0.67 -0.68 0.34 0 0 Z " fill="#408EC8" transform="translate(260,287)"/>
<path d="M0 0 C0.66 0.99 1.32 1.98 2 3 C1.375 4.9375 1.375 4.9375 0 7 C-3.125 7.75 -3.125 7.75 -6 8 C-5.525625 7.54625 -5.05125 7.0925 -4.5625 6.625 C-2.90972192 5.06741796 -2.90972192 5.06741796 -2 3 C-1.34 3 -0.68 3 0 3 C0 2.01 0 1.02 0 0 Z " fill="#3F94CD" transform="translate(432,122)"/>
<path d="M0 0 C2.31 0 4.62 0 7 0 C6 2 6 2 3.93359375 2.8515625 C2.69802734 3.23441406 2.69802734 3.23441406 1.4375 3.625 C0.19806641 4.01558594 0.19806641 4.01558594 -1.06640625 4.4140625 C-1.70449219 4.60742188 -2.34257812 4.80078125 -3 5 C-2.67 4.01 -2.34 3.02 -2 2 C-1.34 2 -0.68 2 0 2 C0 1.34 0 0.68 0 0 Z " fill="#1D7DBE" transform="translate(137,115)"/>
<path d="M0 0 C2.64 1.98 5.28 3.96 8 6 C7.67 6.66 7.34 7.32 7 8 C6.21625 7.67 5.4325 7.34 4.625 7 C2.15667503 5.88133489 2.15667503 5.88133489 0 6 C0 4.02 0 2.04 0 0 Z " fill="#0E71B7" transform="translate(290,286)"/>
<path d="M0 0 C0.33 0.66 0.66 1.32 1 2 C-0.21258505 5.23356015 -1.01284458 6.00856305 -4 8 C-4.99 7.67 -5.98 7.34 -7 7 C-4.69 4.69 -2.38 2.38 0 0 Z " fill="#62A8D9" transform="translate(122,268)"/>
<path d="M0 0 C2.31 0.66 4.62 1.32 7 2 C7 3.65 7 5.3 7 7 C5.83040013 6.02433888 4.66438823 5.044375 3.5 4.0625 C2.8503125 3.51722656 2.200625 2.97195313 1.53125 2.41015625 C1.0259375 1.94480469 0.520625 1.47945313 0 1 C0 0.67 0 0.34 0 0 Z " fill="#509FD0" transform="translate(231,261)"/>
<path d="M0 0 C-2.94017338 1.52453435 -5.85472185 2.95157395 -9 4 C-9.99 3.67 -10.98 3.34 -12 3 C-8.48214012 -0.51785988 -4.80656342 -0.10924008 0 0 Z " fill="#75BADB" transform="translate(365,418)"/>
<path d="M0 0 C1.32 0 2.64 0 4 0 C5.41377341 2.63904371 6.37240135 5.07120629 7 8 C3.75700849 5.61042731 1.49097658 3.7952131 0 0 Z " fill="#4D9CCE" transform="translate(265,295)"/>
<path d="M0 0 C0.99 0.33 1.98 0.66 3 1 C2.3125 2.9375 2.3125 2.9375 1 5 C-1.625 5.75 -1.625 5.75 -4 6 C-3.67 5.01 -3.34 4.02 -3 3 C-2.34 3 -1.68 3 -1 3 C-0.67 2.01 -0.34 1.02 0 0 Z " fill="#4F9ACC" transform="translate(334,192)"/>
<path d="M0 0 C1.65 0.33 3.3 0.66 5 1 C4.01 2.485 4.01 2.485 3 4 C-0.125 4.1875 -0.125 4.1875 -3 4 C-3 3.34 -3 2.68 -3 2 C-2.01 2 -1.02 2 0 2 C0 1.34 0 0.68 0 0 Z " fill="#0E7ABF" transform="translate(350,418)"/>
<path d="M0 0 C2.31 1.98 4.62 3.96 7 6 C5.68 6.33 4.36 6.66 3 7 C0 2.25 0 2.25 0 0 Z " fill="#4E9CCB" transform="translate(124,377)"/>
<path d="M0 0 C0.33 0 0.66 0 1 0 C1.33 2.97 1.66 5.94 2 9 C1.34 9 0.68 9 0 9 C-0.33 9.99 -0.66 10.98 -1 12 C-1.14285714 3.42857143 -1.14285714 3.42857143 0 0 Z " fill="#1877B8" transform="translate(80,321)"/>
<path d="M0 0 C1.65 0 3.3 0 5 0 C5.33 1.98 5.66 3.96 6 6 C3.97945196 4.35830472 1.97956942 2.69088222 0 1 C0 0.67 0 0.34 0 0 Z " fill="#4C9DD4" transform="translate(272,303)"/>
<path d="M0 0 C1 2 1 2 0.4375 4 C-1.57302108 6.79724672 -3.74418077 7.15065585 -7 8 C-6.02133662 6.85373678 -5.04205413 5.70800212 -4.0625 4.5625 C-3.51722656 3.92441406 -2.97195312 3.28632813 -2.41015625 2.62890625 C-1.63204305 1.73008851 -0.84063472 0.84063472 0 0 Z " fill="#68ACD8" transform="translate(148,242)"/>
<path d="M0 0 C1.22640801 4.90563206 0.31649339 6.61520893 -2 11 C-2.99 11.33 -3.98 11.66 -5 12 C-4.67 11.01 -4.34 10.02 -4 9 C-3.34 9 -2.68 9 -2 9 C-1.34 6.03 -0.68 3.06 0 0 Z " fill="#559FC7" transform="translate(315,208)"/>
<path d="M0 0 C0 3.51716303 -0.82445585 4.37121748 -3 7 C-4.32 6.67 -5.64 6.34 -7 6 C-6.21625 5.38125 -5.4325 4.7625 -4.625 4.125 C-2.03162353 2.10141339 -2.03162353 2.10141339 0 0 Z " fill="#0975C1" transform="translate(382,104)"/>
<path d="M0 0 C0 0.66 0 1.32 0 2 C-5.45769231 5.10096154 -5.45769231 5.10096154 -8.203125 4.58984375 C-8.79609375 4.39519531 -9.3890625 4.20054688 -10 4 C-8.71086513 3.32845067 -7.41859796 2.66291141 -6.125 2 C-5.40570313 1.62875 -4.68640625 1.2575 -3.9453125 0.875 C-2 0 -2 0 0 0 Z " fill="#65A8CF" transform="translate(140,84)"/>
<path d="M0 0 C4.31392226 0.4793247 6.16569547 1.7457985 9 5 C8.67 5.66 8.34 6.32 8 7 C4.2047869 5.50902342 2.38957269 3.24299151 0 0 Z " fill="#0774C1" transform="translate(289,80)"/>
<path d="M0 0 C3.24299151 2.38957269 5.50902342 4.2047869 7 8 C5.68 8 4.36 8 3 8 C1.92474806 5.34771188 0.90543849 2.71631546 0 0 Z " fill="#73B0DA" transform="translate(339,331)"/>
<path d="M0 0 C3.26954202 0.56371414 4.82575883 1.49962266 7 4 C6.34 4 5.68 4 5 4 C4.67 4.66 4.34 5.32 4 6 C2.62437146 4.71034824 1.29233607 3.37310707 0 2 C0 1.34 0 0.68 0 0 Z " fill="#3F94C9" transform="translate(332,327)"/>
<path d="M0 0 C0.33 0.66 0.66 1.32 1 2 C-5.4 3.23076923 -5.4 3.23076923 -8.4375 2.0625 C-8.953125 1.711875 -9.46875 1.36125 -10 1 C-6.61981469 -0.04005702 -3.5219721 -0.08004482 0 0 Z " fill="#75B3DE" transform="translate(191,221)"/>
<path d="M0 0 C5.445 1.485 5.445 1.485 11 3 C11 3.33 11 3.66 11 4 C7.75 4.25 7.75 4.25 4 4 C2.68 2.68 1.36 1.36 0 0 Z " fill="#4F97CD" transform="translate(320,179)"/>
<path d="M0 0 C0.33 1.32 0.66 2.64 1 4 C-1.3125 5.125 -1.3125 5.125 -4 6 C-4.99 5.34 -5.98 4.68 -7 4 C-6.030625 3.525625 -5.06125 3.05125 -4.0625 2.5625 C-1.19522563 1.29806053 -1.19522563 1.29806053 0 0 Z " fill="#499AD0" transform="translate(296,176)"/>
<path d="M0 0 C-1.11375 0.474375 -2.2275 0.94875 -3.375 1.4375 C-5.26710994 2.25306463 -7.15712709 3.07856355 -9 4 C-9.33 2.68 -9.66 1.36 -10 0 C-6.33694766 -0.74926071 -3.57644848 -1.2380014 0 0 Z " fill="#56A1D7" transform="translate(419,133)"/>
<path d="M0 0 C0 3 0 3 -2 6 C-3.32 5.67 -4.64 5.34 -6 5 C-4.02 3.35 -2.04 1.7 0 0 Z " fill="#58AAD7" transform="translate(155,236)"/>
</svg>
